<svg xmlns="http://www.w3.org/2000/svg" xmlns:xlink="http://www.w3.org/1999/xlink" width="390" height="76.076" viewBox="0 0 390 76.076"><defs><linearGradient id="linear-gradient" x1=".198" y1=".902" x2=".772" y2=".056" gradientUnits="objectBoundingBox"><stop offset="0" stop-color="#ff0f64"/><stop offset=".799" stop-color="#ff4687"/></linearGradient><linearGradient id="linear-gradient-10" x1=".012" y1=".881" x2=".574" y2=".15" xlink:href="#linear-gradient-4"/><linearGradient id="linear-gradient-2" x1=".213" y1=".5" x2="1.122" y2=".5" gradientUnits="objectBoundingBox"><stop offset=".102" stop-color="#ff4687"/><stop offset=".151" stop-color="#ff4687" stop-opacity=".957"/><stop offset=".239" stop-color="#ff4687" stop-opacity=".835"/><stop offset=".355" stop-color="#ff4687" stop-opacity=".643"/><stop offset=".494" stop-color="#ff4687" stop-opacity=".376"/><stop offset=".652" stop-color="#ff4687" stop-opacity=".039"/><stop offset=".67" stop-color="#ff4687" stop-opacity="0"/></linearGradient><linearGradient id="linear-gradient-3" x1=".94" y1="-.038" x2=".266" y2=".916" gradientUnits="objectBoundingBox"><stop offset=".207" stop-color="#ff4687"/><stop offset=".265" stop-color="#ff4687" stop-opacity=".957"/><stop offset=".368" stop-color="#ff4687" stop-opacity=".835"/><stop offset=".505" stop-color="#ff4687" stop-opacity=".643"/><stop offset=".669" stop-color="#ff4687" stop-opacity=".376"/><stop offset=".856" stop-color="#ff4687" stop-opacity=".039"/><stop offset=".876" stop-color="#ff4687" stop-opacity="0"/></linearGradient><linearGradient id="linear-gradient-4" x1=".982" y1=".205" x2=".15" y2=".742" gradientUnits="objectBoundingBox"><stop offset="0" stop-color="#ff0f64"/><stop offset="1" stop-color="#ff4687"/></linearGradient><linearGradient id="linear-gradient-5" x1="-14.174" y1="4.902" x2="-13.338" y2="5.37" gradientUnits="objectBoundingBox"><stop offset="0" stop-color="#ff4687"/><stop offset="1" stop-color="#ff4687"/></linearGradient><linearGradient id="linear-gradient-6" x1="-21.418" y1="3.224" x2="-20.904" y2="4.082" xlink:href="#linear-gradient-5"/><linearGradient id="linear-gradient-7" y1="-3.689" x2="1" y2="-3.689" gradientUnits="objectBoundingBox"><stop offset=".248" stop-color="#ff0f64"/><stop offset="1" stop-color="#ff4687"/></linearGradient><linearGradient id="linear-gradient-8" x1="0" y1=".5" x2="1" y2=".5" xlink:href="#linear-gradient-4"/><linearGradient id="linear-gradient-9" x1=".5" y1="1" x2=".5" gradientUnits="objectBoundingBox"><stop offset="0" stop-color="#ff4687" stop-opacity="0"/><stop offset=".017" stop-color="#ff4687" stop-opacity=".039"/><stop offset=".167" stop-color="#ff4687" stop-opacity=".376"/><stop offset=".3" stop-color="#ff4687" stop-opacity=".643"/><stop offset=".41" stop-color="#ff4687" stop-opacity=".835"/><stop offset=".494" stop-color="#ff4687" stop-opacity=".957"/><stop offset=".541" stop-color="#ff4687"/><stop offset="1" stop-color="#ff0f64"/></linearGradient><linearGradient id="linear-gradient-22" x1=".051" y1="1.042" x2=".732" y2=".086" xlink:href="#linear-gradient-11"/><linearGradient id="linear-gradient-11" y1=".5" x2="1" y2=".5" gradientUnits="objectBoundingBox"><stop offset=".27" stop-color="#ff4687"/><stop offset=".333" stop-color="#ff4687" stop-opacity=".957"/><stop offset=".446" stop-color="#ff4687" stop-opacity=".835"/><stop offset=".595" stop-color="#ff4687" stop-opacity=".643"/><stop offset=".774" stop-color="#ff4687" stop-opacity=".376"/><stop offset=".978" stop-color="#ff4687" stop-opacity=".039"/><stop offset="1" stop-color="#ff4687" stop-opacity="0"/></linearGradient><linearGradient id="linear-gradient-13" x1=".5" y1=".39" x2=".5" y2=".961" gradientUnits="objectBoundingBox"><stop offset="0" stop-color="#ff4687"/><stop offset=".087" stop-color="#ff4687" stop-opacity=".957"/><stop offset=".241" stop-color="#ff4687" stop-opacity=".835"/><stop offset=".445" stop-color="#ff4687" stop-opacity=".643"/><stop offset=".691" stop-color="#ff4687" stop-opacity=".376"/><stop offset=".969" stop-color="#ff4687" stop-opacity=".039"/><stop offset="1" stop-color="#ff4687" stop-opacity="0"/></linearGradient><linearGradient id="linear-gradient-14" x1=".45" y1="-Infinity" x2=".501" y2="Infinity" gradientUnits="objectBoundingBox"><stop offset="0" stop-color="#e74984"/><stop offset="1" stop-color="#e74984" stop-opacity="0"/></linearGradient><linearGradient id="linear-gradient-15" x1=".051" y1="1.042" x2=".732" y2=".086" xlink:href="#linear-gradient-11"/><linearGradient id="linear-gradient-16" x1=".5" y1="-Infinity" x2=".5" y2="-Infinity" gradientUnits="objectBoundingBox"><stop offset="0" stop-color="#ff4687"/><stop offset="1" stop-color="#ff0f64"/></linearGradient><linearGradient id="linear-gradient-17" x1="-58.675" y1="87.172" x2="-58.166" y2="88.028" xlink:href="#linear-gradient-5"/><linearGradient id="linear-gradient-18" x1="-40.603" y1="125.301" x2="-39.763" y2="125.768" xlink:href="#linear-gradient-5"/><linearGradient id="linear-gradient-19" y1="-64.479" x2="1" y2="-64.479" gradientUnits="objectBoundingBox"><stop offset=".237" stop-color="#ff0f64"/><stop offset="1" stop-color="#ff4687"/></linearGradient><linearGradient id="linear-gradient-20" x1=".953" y1="1.044" x2=".27" y2=".087" xlink:href="#linear-gradient-3"/><style>.cls-4{fill:#ff0f64}.cls-5{fill:url(#linear-gradient-4)}.cls-6{fill:#ff4687}.cls-10{fill:url(#linear-gradient-8)}.cls-13{fill:#aaa}</style></defs><g id="Group_2585" data-name="Group 2585" transform="translate(-10.008 -10.371)"><g id="Group_2577" data-name="Group 2577" transform="translate(382.624 25.519)"><path id="Path_1844" data-name="Path 1844" d="M280.838 35.093v7.223h6.885v-7.223c0-3.956 1.623-5.982 4.122-6.718l-3.091-6.381c-5.323 1.8-7.916 6.431-7.916 13.099z" transform="translate(-280.838 -21.151)" fill="url(#linear-gradient)"/><path id="Path_1845" data-name="Path 1845" d="M296.114 28.266v-6.885h-3.873a17.4 17.4 0 00-5.6.843l-.2.362 2.887 5.959.4.061a8.851 8.851 0 012.5-.34z" transform="translate(-278.73 -21.381)" fill="url(#linear-gradient-2)"/></g><path id="Path_1846" data-name="Path 1846" d="M226.61 21.413c.1 0 .294.286.294.286l.084 6.351a2.751 2.751 0 01-.33.184 15.933 15.933 0 00-12.567 6.253l-5.5-4.132a22.848 22.848 0 0118.009-8.948" transform="translate(74.635 4.146)" fill="url(#linear-gradient-3)"/><g id="Group_2582" data-name="Group 2582" transform="translate(10.008 10.372)"><g id="Group_2580" data-name="Group 2580"><path id="Path_1847" data-name="Path 1847" class="cls-4" d="M121.442 38.437a22.8 22.8 0 00-6.393-12.248l-.409-.132-4.555 4.564.129.395a15.989 15.989 0 014.247 7.421l.007.081h6.926z" transform="translate(27.604 -4.477)"/><path id="Path_1848" data-name="Path 1848" class="cls-4" d="M102 28.118a16.1 16.1 0 0111.37 4.69l4.831-4.831A22.91 22.91 0 00102 21.287a1.7 1.7 0 00-.31.1v6.6a2.041 2.041 0 00.31.131z" transform="translate(24.449 -6.27)"/><path id="Path_1849" data-name="Path 1849" class="cls-5" d="M106.36 28.118v-6.831a22.818 22.818 0 00-16.187 6.7.836.836 0 00-.085.264l4.639 4.665a1.343 1.343 0 00.267-.089 16.013 16.013 0 0111.366-4.709z" transform="translate(20.089 -6.27)"/><path id="Path_1850" data-name="Path 1850" class="cls-6" d="M92.108 42.347a16.01 16.01 0 014.7-11.356l-4.827-4.831a22.818 22.818 0 00-6.7 16.187 1.155 1.155 0 00.121.279h6.513a1.439 1.439 0 00.193-.279z" transform="translate(18.28 -4.438)"/><path id="Path_1851" data-name="Path 1851" class="cls-6" d="M92.108 37.925h-6.831a22.815 22.815 0 006.711 16.192c.045.045.215.056.215.056l4.652-4.686s-.005-.172-.037-.2a16 16 0 01-4.71-11.362z" transform="translate(18.28 -.017)"/><path id="Path_1852" data-name="Path 1852" d="M64.422 57.8a22.808 22.808 0 0015.98-6.57.9.9 0 00.078-.286L75.838 46.3a.913.913 0 00-.246.077 16 16 0 01-11.176 4.59l-.2.128-.061 6.6z" transform="translate(10.341 3.131)" fill="url(#linear-gradient-5)"/><path id="Path_1853" data-name="Path 1853" d="M77.282 38.092l.124-.268h6.612l.1.268a22.817 22.817 0 01-6.848 16.327l-4.788-4.872a16.012 16.012 0 004.8-11.455z" transform="translate(13.471 -.055)" fill="url(#linear-gradient-6)"/><path id="Path_1854" data-name="Path 1854" class="cls-6" d="M77.265 42.462a16.047 16.047 0 00-4.6-11.271 2.311 2.311 0 01-.139-.3l4.646-4.646a2.028 2.028 0 01.367.154A22.816 22.816 0 0184.1 42.443z" transform="translate(13.487 -4.405)"/><path id="Path_1855" data-name="Path 1855" class="cls-6" d="M64.392 28.213l-.345-.076v-6.691l.345-.065a22.822 22.822 0 0116.327 6.848l-4.873 4.788a16.008 16.008 0 00-11.454-4.804z" transform="translate(10.302 -6.234)"/><path id="Path_1856" data-name="Path 1856" d="M54.606 44.273v1.15h-6.885v-1.15a22.81 22.81 0 0122.807-22.892v6.832a16.06 16.06 0 00-15.922 16.06z" transform="translate(4.166 -6.234)" fill="url(#linear-gradient-7)"/><path id="Path_1857" data-name="Path 1857" class="cls-10" d="M32.814 21.381A22.892 22.892 0 1055.62 44.273a22.809 22.809 0 00-22.806-22.892zm0 38.9a16.007 16.007 0 1115.921-16.008A16.014 16.014 0 0132.814 60.28z" transform="translate(-10.008 -6.234)"/><path id="Path_1858" data-name="Path 1858" d="M194.074 39.536v20.117h6.885V39.55z" transform="translate(59.17 .589)" fill="url(#linear-gradient-9)"/><path id="Path_1859" data-name="Path 1859" d="M189.946 10.372c-9.122 0-13.511 5.25-13.511 13.941v22.2l.22.235h6.366l.3-.235v-22.2c0-5.162 2.754-7.057 6.626-7.057h3.873v-6.884z" transform="translate(52.54 -10.372)" fill="url(#linear-gradient-10)"/><path id="Rectangle_466" data-name="Rectangle 466" class="cls-4" transform="translate(228.975 36.145)" d="M0 0h6.885v24.097H0z"/><path id="Rectangle_467" data-name="Rectangle 467" class="cls-13" transform="translate(253.244 17.005)" d="M0 0h6.885v23.787H0z"/><path id="Rectangle_468" data-name="Rectangle 468" class="cls-13" transform="translate(222.262 17.005)" d="M0 0h24.097v6.885H0z"/><path id="Path_1860" data-name="Path 1860" class="cls-6" d="M106.337 50.882a16.009 16.009 0 01-11.356-4.7l-4.831 4.827a22.819 22.819 0 0016.187 6.706h.2l-.059-6.831z" transform="translate(20.112 3.085)"/><path id="Rectangle_469" data-name="Rectangle 469" class="cls-13" transform="translate(125.135 33.96)" d="M0 0h23.911v6.832H0z"/><path id="Rectangle_470" data-name="Rectangle 470" transform="translate(246.176)" fill="url(#linear-gradient-11)" d="M0 0h7.068v6.885H0z"/><g id="Group_2578" data-name="Group 2578" transform="translate(162.633 15.147)"><path id="Path_1861" data-name="Path 1861" class="cls-10" d="M143.564 21.381a21.459 21.459 0 00-15.191 6.239l-.158.315v13.328l.158.234c1-5.485 5.867-13.281 15.185-13.281.172 0 .343 0 .512.01v-6.838c-.17-.004-.337-.007-.506-.007z" transform="translate(-128.215 -21.381)"/></g><path id="Path_1862" data-name="Path 1862" d="M158.319 42.556h-6.834v-2.248a12.054 12.054 0 00-11.642-12.084c-.106 0-.36-.222-.36-.222l.041-6.389s.208-.23.311-.227a18.9 18.9 0 0118.484 18.922z" transform="translate(38.653 -6.233)" fill="url(#linear-gradient-13)"/><path id="Line_208" data-name="Line 208" transform="translate(190.138 36.323)" fill="url(#linear-gradient-14)" d="M6.834 0H0"/><path id="Rectangle_471" data-name="Rectangle 471" class="cls-13" transform="translate(190.138 36.323)" d="M0 0h6.834v23.919H0z"/><path id="Rectangle_472" data-name="Rectangle 472" class="cls-13" transform="translate(372.616 36.145)" d="M0 0h6.885v24.097H0z"/><path id="Rectangle_473" data-name="Rectangle 473" class="cls-13" transform="translate(155.906 17.005)" d="M0 0h6.885v23.787H0z"/><path id="Rectangle_474" data-name="Rectangle 474" class="cls-4" transform="translate(51.887 39.001)" d="M0 0h6.885v13.022H0z"/><path id="Rectangle_475" data-name="Rectangle 475" class="cls-13" transform="translate(51.887 51.768)" d="M0 0h6.885v24.309H0z"/><g id="Group_2579" data-name="Group 2579" transform="translate(126.336 47.685)"><path id="Path_1863" data-name="Path 1863" d="M114.687 45.031a16.033 16.033 0 01-12.6 6.282 1.439 1.439 0 00-.253.1v6.629a1.582 1.582 0 00.314.1 22.851 22.851 0 0017.96-8.954z" transform="translate(-101.833 -45.031)" fill="url(#linear-gradient-15)"/></g></g><path id="Line_209" data-name="Line 209" transform="translate(253.244 40.792)" fill="url(#linear-gradient-16)" d="M6.885 0H0"/><g id="Group_2581" data-name="Group 2581" transform="translate(268.625 .033)"><path id="Path_1864" data-name="Path 1864" d="M235.053 42.634l6.486-.062a1.18 1.18 0 00.107-.283 22.826 22.826 0 00-6.846-16.113l-4.788 4.873a15.947 15.947 0 014.8 11.313 1.772 1.772 0 00.241.272z" transform="translate(-195.949 -4.465)" fill="url(#linear-gradient-17)"/><path id="Path_1865" data-name="Path 1865" class="cls-6" d="M221.889 51.028l-.216.211v6.37l.216.25a22.821 22.821 0 0016.327-6.846l-4.872-4.789a16.013 16.013 0 01-11.455 4.804z" transform="translate(-199.083 3.07)"/><path id="Path_1866" data-name="Path 1866" class="cls-4" d="M212.139 27.736h-6.885v14.181l.15.29h6.56l.175-.29z" transform="translate(-205.254 -3.879)"/><path id="Rectangle_476" data-name="Rectangle 476" class="cls-13" d="M0 0h6.885v24.096H0z"/><path id="Path_1867" data-name="Path 1867" class="cls-6" d="M234.785 38.1a16.008 16.008 0 01-4.612 11.263 1.17 1.17 0 00-.083.242l4.686 4.608a.744.744 0 00.272-.066 22.814 22.814 0 006.568-16.047v-.2l-6.831.059v.141z" transform="translate(-195.919 -.06)"/><path id="Path_1868" data-name="Path 1868" d="M221.884 28.237a16 16 0 0111.253 4.6 3.834 3.834 0 00.355.182l4.57-4.61a2.265 2.265 0 00-.138-.446 22.82 22.82 0 00-16.041-6.56h-.2l.059 6.832z" transform="translate(-199.079 -6.258)" fill="url(#linear-gradient-18)"/><path id="Path_1869" data-name="Path 1869" d="M212.139 38.043h-6.885a22.809 22.809 0 0022.806 22.891V54.1a16.059 16.059 0 01-15.921-16.057z" transform="translate(-205.254 -.005)" fill="url(#linear-gradient-19)"/></g></g><path id="Path_1870" data-name="Path 1870" d="M69.329 51.408v6.831A23.286 23.286 0 0151.1 49.333l5.419-4.207a16.105 16.105 0 0012.81 6.282z" transform="translate(15.443 13.062)" fill="url(#linear-gradient-20)"/><g id="Group_2584" data-name="Group 2584" transform="translate(330.202 25.389)"><path id="Path_1871" data-name="Path 1871" class="cls-4" d="M278.9 38.437a22.789 22.789 0 00-6.393-12.248l-.409-.132-4.555 4.564.131.395a15.987 15.987 0 014.246 7.421l.008.081h6.925z" transform="translate(-233.412 -19.494)"/><path id="Path_1872" data-name="Path 1872" class="cls-4" d="M259.46 28.118a16.1 16.1 0 0111.37 4.69l4.829-4.831a22.9 22.9 0 00-16.2-6.691 1.684 1.684 0 00-.311.1v6.6a2.065 2.065 0 00.312.132z" transform="translate(-236.567 -21.287)"/><path id="Path_1873" data-name="Path 1873" class="cls-5" d="M263.82 28.118v-6.831a22.818 22.818 0 00-16.187 6.7.847.847 0 00-.087.264l4.641 4.665a1.373 1.373 0 00.267-.089 16.013 16.013 0 0111.366-4.709z" transform="translate(-240.928 -21.287)"/><path id="Path_1874" data-name="Path 1874" class="cls-6" d="M249.568 42.347a16.01 16.01 0 014.7-11.356l-4.831-4.831a22.819 22.819 0 00-6.706 16.187 1.148 1.148 0 00.122.279h6.512a1.439 1.439 0 00.203-.279z" transform="translate(-242.736 -19.456)"/><path id="Path_1875" data-name="Path 1875" class="cls-6" d="M249.568 37.925h-6.832a22.821 22.821 0 006.711 16.192c.045.045.215.055.215.055l4.652-4.685s-.006-.172-.037-.2a16.006 16.006 0 01-4.709-11.362z" transform="translate(-242.736 -15.034)"/><path id="Path_1876" data-name="Path 1876" class="cls-6" d="M263.8 50.882a16 16 0 01-11.356-4.7l-4.831 4.831a22.819 22.819 0 0016.187 6.701h.2l-.06-6.832z" transform="translate(-240.904 -11.932)"/><path id="Rectangle_477" data-name="Rectangle 477" class="cls-13" transform="translate(21.578 18.943)" d="M0 0h23.911v6.832H0z"/><g id="Group_2583" data-name="Group 2583" transform="translate(22.78 32.668)"><path id="Path_1877" data-name="Path 1877" d="M272.146 45.031a16.03 16.03 0 01-12.6 6.282 1.439 1.439 0 00-.253.1v6.629a1.6 1.6 0 00.312.1 22.852 22.852 0 0017.961-8.954z" transform="translate(-259.293 -45.031)" fill="url(#linear-gradient-22)"/></g></g></g></svg>